<mxfile host="app.diagrams.net" modified="2023-05-28T12:24:16.182Z" agent="Mozilla/5.0 (Windows NT 10.0; Win64; x64) AppleWebKit/537.36 (KHTML, like Gecko) Chrome/113.0.0.0 Safari/537.36" etag="GEmnfUN0dHMKr4GlLOi_" version="21.3.5" type="device">
  <diagram name="Страница 1" id="LkF_jfgzLN6KNd4ZiFo_">
    <mxGraphModel dx="2261" dy="834" grid="1" gridSize="10" guides="1" tooltips="1" connect="1" arrows="1" fold="1" page="1" pageScale="1" pageWidth="827" pageHeight="1169" math="0" shadow="0">
      <root>
        <mxCell id="0" />
        <mxCell id="1" parent="0" />
        <mxCell id="5kZ0wjec15lwXwVyW9Nn-5" value="Клієнт" style="shape=umlActor;verticalLabelPosition=bottom;verticalAlign=top;html=1;" vertex="1" parent="1">
          <mxGeometry x="60" y="210" width="20" height="40" as="geometry" />
        </mxCell>
        <mxCell id="5kZ0wjec15lwXwVyW9Nn-6" value="Пристрій" style="verticalAlign=top;align=left;spacingTop=8;spacingLeft=2;spacingRight=12;shape=cube;size=10;direction=south;fontStyle=4;html=1;whiteSpace=wrap;" vertex="1" parent="1">
          <mxGeometry x="200" y="180" width="170" height="110" as="geometry" />
        </mxCell>
        <mxCell id="5kZ0wjec15lwXwVyW9Nn-7" value="Браузер" style="shape=module;align=left;spacingLeft=20;align=center;verticalAlign=top;whiteSpace=wrap;html=1;" vertex="1" parent="1">
          <mxGeometry x="210" y="220" width="140" height="50" as="geometry" />
        </mxCell>
        <mxCell id="5kZ0wjec15lwXwVyW9Nn-8" value="Клавіатура/екран" style="html=1;verticalAlign=bottom;endArrow=block;edgeStyle=elbowEdgeStyle;elbow=vertical;curved=0;rounded=0;entryX=0.086;entryY=0.5;entryDx=0;entryDy=0;entryPerimeter=0;" edge="1" parent="1" target="5kZ0wjec15lwXwVyW9Nn-7">
          <mxGeometry width="80" relative="1" as="geometry">
            <mxPoint x="90" y="244.5" as="sourcePoint" />
            <mxPoint x="170" y="244.5" as="targetPoint" />
          </mxGeometry>
        </mxCell>
        <mxCell id="5kZ0wjec15lwXwVyW9Nn-9" value="Веб-сервер" style="verticalAlign=top;align=left;spacingTop=8;spacingLeft=2;spacingRight=12;shape=cube;size=10;direction=south;fontStyle=4;html=1;whiteSpace=wrap;" vertex="1" parent="1">
          <mxGeometry x="190" y="370" width="290" height="180" as="geometry" />
        </mxCell>
        <mxCell id="5kZ0wjec15lwXwVyW9Nn-15" value="" style="edgeStyle=orthogonalEdgeStyle;rounded=0;orthogonalLoop=1;jettySize=auto;html=1;" edge="1" parent="1" source="5kZ0wjec15lwXwVyW9Nn-10" target="5kZ0wjec15lwXwVyW9Nn-12">
          <mxGeometry relative="1" as="geometry" />
        </mxCell>
        <mxCell id="5kZ0wjec15lwXwVyW9Nn-16" value="" style="edgeStyle=orthogonalEdgeStyle;rounded=0;orthogonalLoop=1;jettySize=auto;html=1;" edge="1" parent="1" source="5kZ0wjec15lwXwVyW9Nn-10" target="5kZ0wjec15lwXwVyW9Nn-13">
          <mxGeometry relative="1" as="geometry" />
        </mxCell>
        <mxCell id="5kZ0wjec15lwXwVyW9Nn-10" value="Авторизація на сайті" style="shape=module;align=left;spacingLeft=20;align=center;verticalAlign=top;whiteSpace=wrap;html=1;" vertex="1" parent="1">
          <mxGeometry x="210" y="410" width="110" height="50" as="geometry" />
        </mxCell>
        <mxCell id="5kZ0wjec15lwXwVyW9Nn-11" value="" style="endArrow=block;startArrow=block;endFill=1;startFill=1;html=1;rounded=0;" edge="1" parent="1" target="5kZ0wjec15lwXwVyW9Nn-10">
          <mxGeometry width="160" relative="1" as="geometry">
            <mxPoint x="265" y="275" as="sourcePoint" />
            <mxPoint x="490" y="380" as="targetPoint" />
          </mxGeometry>
        </mxCell>
        <mxCell id="5kZ0wjec15lwXwVyW9Nn-12" value="Подання вимог для житла" style="shape=module;align=left;spacingLeft=20;align=center;verticalAlign=top;whiteSpace=wrap;html=1;" vertex="1" parent="1">
          <mxGeometry x="215" y="490" width="100" height="50" as="geometry" />
        </mxCell>
        <mxCell id="5kZ0wjec15lwXwVyW9Nn-13" value="Подивитись перелік вільного житла" style="shape=module;align=left;spacingLeft=20;align=center;verticalAlign=top;whiteSpace=wrap;html=1;jettyWidth=24;jettyHeight=10;" vertex="1" parent="1">
          <mxGeometry x="340" y="410" width="120" height="50" as="geometry" />
        </mxCell>
        <mxCell id="5kZ0wjec15lwXwVyW9Nn-17" value="Оплата за оренду житла" style="shape=module;align=left;spacingLeft=20;align=center;verticalAlign=top;whiteSpace=wrap;html=1;" vertex="1" parent="1">
          <mxGeometry x="350" y="490" width="100" height="50" as="geometry" />
        </mxCell>
        <mxCell id="5kZ0wjec15lwXwVyW9Nn-19" value="" style="endArrow=classicThin;endFill=1;endSize=12;html=1;rounded=0;exitX=1;exitY=1;exitDx=0;exitDy=0;entryX=0.5;entryY=0;entryDx=0;entryDy=0;" edge="1" parent="1" source="5kZ0wjec15lwXwVyW9Nn-10" target="5kZ0wjec15lwXwVyW9Nn-17">
          <mxGeometry width="160" relative="1" as="geometry">
            <mxPoint x="310" y="590" as="sourcePoint" />
            <mxPoint x="470" y="590" as="targetPoint" />
          </mxGeometry>
        </mxCell>
        <mxCell id="5kZ0wjec15lwXwVyW9Nn-20" value="Сервер бази даних" style="verticalAlign=top;align=left;spacingTop=8;spacingLeft=2;spacingRight=12;shape=cube;size=10;direction=south;fontStyle=4;html=1;whiteSpace=wrap;" vertex="1" parent="1">
          <mxGeometry x="-120" y="410" width="230" height="135" as="geometry" />
        </mxCell>
        <mxCell id="5kZ0wjec15lwXwVyW9Nn-21" value="HTTP/HTTPS &lt;br&gt;connection" style="text;html=1;align=center;verticalAlign=middle;resizable=0;points=[];autosize=1;strokeColor=none;fillColor=none;" vertex="1" parent="1">
          <mxGeometry x="260" y="310" width="100" height="40" as="geometry" />
        </mxCell>
        <mxCell id="5kZ0wjec15lwXwVyW9Nn-22" value="База даних" style="shape=module;align=left;spacingLeft=20;align=center;verticalAlign=top;whiteSpace=wrap;html=1;" vertex="1" parent="1">
          <mxGeometry x="-90" y="480" width="150" height="55" as="geometry" />
        </mxCell>
        <mxCell id="5kZ0wjec15lwXwVyW9Nn-24" value="" style="endArrow=block;startArrow=block;endFill=1;startFill=1;html=1;rounded=0;entryX=0.15;entryY=0.49;entryDx=0;entryDy=0;entryPerimeter=0;exitX=1.007;exitY=0.636;exitDx=0;exitDy=0;exitPerimeter=0;" edge="1" parent="1" source="5kZ0wjec15lwXwVyW9Nn-22" target="5kZ0wjec15lwXwVyW9Nn-12">
          <mxGeometry width="160" relative="1" as="geometry">
            <mxPoint x="60" y="514.5" as="sourcePoint" />
            <mxPoint x="220" y="514.5" as="targetPoint" />
          </mxGeometry>
        </mxCell>
      </root>
    </mxGraphModel>
  </diagram>
</mxfile>
